<?xml version="1.0" encoding="UTF-8"?><svg id="Layer_2" xmlns="http://www.w3.org/2000/svg" viewBox="0 0 92.739 116.3582"><g id="Components"><g id="_11d87d1b-b963-48c7-880b-39b3844ecfc3_10"><path d="M84.688,107.3466c.991,0,1.796-.3613,2.415-1.0838.62-.7226.929-1.8478.929-3.3755,0-1.5071-.309-2.6167-.929-3.329-.619-.7122-1.424-1.0684-2.415-1.0684-1.012,0-1.827.3562-2.447,1.0684-.619.7123-.929,1.8219-.929,3.329,0,1.5277.31,2.6529.929,3.3755.62.7225,1.435,1.0838,2.447,1.0838ZM79.052,116.3582c-1.569,0-2.354-.7949-2.354-2.3845v-16.5676c0-1.569.764-2.3535,2.292-2.3535,1.548,0,2.322.7845,2.322,2.3535v.0929c.434-.7639,1.074-1.3729,1.92-1.8271.847-.4542,1.797-.6813,2.849-.6813,1.322,0,2.483.32,3.484.96,1.002.64,1.781,1.5484,2.338,2.7252.558,1.1767.836,2.5806.836,4.2115s-.278,3.04-.836,4.2271c-.557,1.1871-1.336,2.1058-2.338,2.7561-1.001.6503-2.162.9755-3.484.9755-1.011,0-1.935-.2168-2.771-.6504-.836-.4335-1.481-1.0116-1.936-1.7341v5.5122c0,1.5896-.774,2.3845-2.322,2.3845ZM67.284,110.846c-.908,0-1.842-.0826-2.802-.2478-.96-.1651-1.833-.4439-2.617-.8361-.516-.2684-.852-.609-1.007-1.0219-.154-.4129-.16-.8155-.015-1.2078.145-.3922.403-.6864.774-.8825.372-.1962.805-.191,1.301.0154.846.351,1.626.5988,2.338.7433.712.1445,1.399.2167,2.059.2167.867,0,1.507-.1393,1.92-.418s.62-.6452.62-1.0994c0-.7225-.527-1.1767-1.58-1.3625l-3.251-.5884c-1.301-.2271-2.292-.6916-2.973-1.3935-.682-.702-1.022-1.6207-1.022-2.7561,0-1.0323.289-1.92.867-2.6632.578-.7433,1.373-1.3213,2.384-1.7342,1.012-.4129,2.178-.6194,3.5-.6194,1.816,0,3.427.351,4.831,1.0529.474.2271.769.5471.882.96.114.4129.088.8155-.077,1.2077-.165.3923-.434.6865-.805.8826-.372.1961-.816.1807-1.332-.0464-.681-.3097-1.301-.5316-1.858-.6658-.557-.1342-1.084-.2013-1.579-.2013-.929,0-1.6.1496-2.013.449-.413.2994-.62.6761-.62,1.1303,0,.7226.486,1.1768,1.456,1.3626l3.251.5884c1.342.2271,2.364.6761,3.066,1.347.702.671,1.053,1.5845,1.053,2.7407,0,1.5896-.619,2.8283-1.858,3.7161-1.239.8877-2.87,1.3316-4.893,1.3316ZM55.517,110.753c-.764,0-1.347-.2219-1.75-.6658-.403-.4438-.604-1.0683-.604-1.8735v-10.5908c0-1.7136.785-2.5703,2.354-2.5703.743,0,1.316.2219,1.718.6658.403.4438.604,1.0787.604,1.9045v10.5908c0,.8052-.196,1.4297-.588,1.8735-.392.4439-.971.6658-1.734.6658ZM37.091,110.784c-1.569,0-2.354-.7948-2.354-2.3845v-17.6204c0-1.5897.785-2.3845,2.354-2.3845,1.548,0,2.323.7948,2.323,2.3845v6.596c.536-.7845,1.228-1.378,2.074-1.7806.847-.4026,1.786-.6039,2.818-.6039,3.572,0,5.358,2.1265,5.358,6.3793v7.0296c0,1.5897-.785,2.3845-2.354,2.3845-.743,0-1.316-.2064-1.718-.6193-.403-.4129-.604-1.0013-.604-1.7652v-6.8128c0-1.0529-.196-1.8116-.589-2.2761-.392-.4645-.97-.6968-1.734-.6968-.991,0-1.781.3097-2.369.929-.588.6194-.882,1.4452-.882,2.4774v6.3793c0,1.5897-.775,2.3845-2.323,2.3845ZM9.041,110.784c-.681,0-1.223-.16-1.626-.48-.402-.32-.728-.8103-.975-1.4709L.184,91.2436c-.289-.7845-.237-1.4555.155-2.0129.392-.5574,1.063-.8361,2.013-.8361.661,0,1.172.1548,1.533.4645s.655.7948.882,1.4554l4.46,13.2851,4.707-13.2541c.227-.6606.526-1.1509.898-1.4709.371-.32.857-.48,1.455-.48.578,0,1.043.16,1.394.48.351.32.65.8206.898,1.5019l4.552,13.4708,4.645-13.5328c.207-.6399.496-1.1199.867-1.4399.372-.32.878-.48,1.518-.48.805,0,1.393.2787,1.765.8361.372.5574.413,1.2284.124,2.0129l-6.318,17.6204c-.227.64-.542,1.12-.944,1.44-.403.32-.934.48-1.595.48s-1.187-.16-1.579-.48-.712-.8103-.96-1.4709l-4.521-12.8205-4.584,12.8514c-.247.64-.562,1.12-.944,1.44-.382.32-.903.48-1.564.48Z" style="fill:#0d6efd; fill-rule:evenodd; stroke-width:0px;"/><path d="M55.517,92.5132c-.867,0-1.533-.2013-1.998-.6038-.464-.4026-.697-.9755-.697-1.7187,0-.7639.233-1.3471.697-1.7497.465-.4026,1.131-.6038,1.998-.6038,1.775,0,2.663.7845,2.663,2.3535,0,1.5483-.888,2.3225-2.663,2.3225Z" style="fill:#0d6efd; stroke-width:0px;"/><path d="M55.893,15.841c-.878.877-2.301.877-3.178,0l-.001-.001c-.877-.878-.877-2.301,0-3.178l3.178-3.178c.877-.877,2.3-.877,3.178,0v.001c.878.878.878,2.301,0,3.178l-3.177,3.178ZM61.147,26.373c-1.241,0-2.247-1.006-2.247-2.247v-.001c0-1.241,1.006-2.247,2.247-2.247h4.494c1.241,0,2.247,1.006,2.247,2.247v.001c0,1.241-1.006,2.247-2.247,2.247h-4.494ZM46.217,6.741c0,1.241-1.006,2.247-2.247,2.247h-.001c-1.241,0-2.248-1.006-2.248-2.247V2.247c0-1.241,1.007-2.247,2.248-2.247h.001c1.241,0,2.247,1.006,2.247,2.247v4.494ZM3.716,77.433c-.622.623-1.559.809-2.372.472-.813-.337-1.344-1.13-1.344-2.011v-33.103l.024-.023c-.006-.133-.011-.266-.014-.399-.006-.238-.01-.477-.01-.716v-13.136c0-3.497,1.39-6.851,3.863-9.324,2.473-2.473,5.827-3.863,9.325-3.863h26.408c7.283,0,13.188,5.904,13.188,13.187v13.852h-.06c-.004.133-.009.266-.014.399l.074.073v12.085c0,7.283-5.905,13.187-13.188,13.187H13.036l-9.32,9.32Z" style="fill:#0d6efd; fill-rule:evenodd; stroke-width:0px;"/><path d="M18.706,54.724c-.793,0-1.422-.192-1.89-.565-.461-.367-.838-.926-1.122-1.683-.001-.003-.002-.005-.003-.007l-6.791-20.48c-.339-.922-.268-1.71.194-2.366.459-.652,1.238-.993,2.349-.993.774,0,1.371.19,1.794.553.415.355.757.909,1.018,1.667,0,.002.001.004.002.006l4.664,15.23,4.909-13.82c.26-.757.607-1.316,1.033-1.683.437-.376,1.006-.569,1.711-.569.684,0,1.232.194,1.648.573.4.365.745.933,1.028,1.71,0,.002.001.003.001.004l4.743,14.035,4.668-15.434c0-.001,0-.003.001-.004.237-.736.574-1.285,1.001-1.653.436-.376,1.027-.57,1.778-.57.952,0,1.644.338,2.083.997.436.654.495,1.441.157,2.362l-6.663,20.467c0,.002-.001.003-.001.005-.261.736-.627,1.285-1.09,1.653-.469.373-1.086.565-1.856.565-.771,0-1.384-.193-1.841-.566-.449-.367-.82-.926-1.103-1.682-.001-.001-.001-.003-.002-.004l-4.721-13.389-4.787,13.423c-.001.002-.002.004-.002.005-.284.732-.647,1.279-1.084,1.645-.446.374-1.054.568-1.826.568Z" style="fill:#fff; fill-rule:evenodd; stroke-width:0px;"/></g></g></svg>