<?xml version="1.0" encoding="UTF-8"?><svg id="Layer_2" xmlns="http://www.w3.org/2000/svg" viewBox="0 0 146.0986 44.931"><g id="Components"><g id="dcdd2572-5ad2-4bb6-8208-0c122b2d1117_10"><path d="M133.4146,30.734c1.561,0,2.829-.569,3.805-1.707.975-1.138,1.463-2.911,1.463-5.318,0-2.374-.488-4.122-1.463-5.244-.976-1.122-2.244-1.683-3.805-1.683-1.594,0-2.879.561-3.854,1.683-.976,1.122-1.464,2.87-1.464,5.244,0,2.407.488,4.18,1.464,5.318.975,1.138,2.26,1.707,3.854,1.707ZM124.5356,44.931c-2.472,0-3.708-1.252-3.708-3.757V15.074c0-2.471,1.203-3.707,3.61-3.707,2.439,0,3.659,1.236,3.659,3.707v.147c.683-1.204,1.691-2.163,3.025-2.878,1.333-.716,2.829-1.074,4.488-1.074,2.081,0,3.911.504,5.488,1.513,1.578,1.008,2.805,2.439,3.683,4.293.879,1.854,1.318,4.065,1.318,6.634s-.439,4.79-1.318,6.66c-.878,1.87-2.105,3.317-3.683,4.341-1.577,1.025-3.407,1.537-5.488,1.537-1.594,0-3.049-.341-4.366-1.024-1.318-.683-2.334-1.594-3.049-2.732v8.683c0,2.505-1.22,3.757-3.659,3.757ZM105.9966,36.247c-1.431,0-2.902-.13-4.415-.39-1.512-.26-2.886-.699-4.122-1.317-.813-.423-1.342-.96-1.586-1.61-.243-.651-.252-1.285-.024-1.903.228-.618.634-1.081,1.22-1.39.585-.309,1.268-.301,2.049.024,1.333.553,2.561.943,3.683,1.171,1.122.228,2.203.342,3.244.342,1.366,0,2.374-.22,3.025-.659.65-.439.975-1.016.975-1.732,0-1.138-.829-1.854-2.488-2.146l-5.122-.927c-2.049-.358-3.61-1.09-4.683-2.196-1.074-1.105-1.61-2.553-1.61-4.342,0-1.626.455-3.024,1.366-4.195.91-1.171,2.163-2.082,3.756-2.732,1.594-.651,3.431-.976,5.513-.976,2.862,0,5.399.553,7.61,1.659.748.358,1.212.862,1.391,1.512.179.651.138,1.285-.122,1.903-.26.618-.683,1.081-1.269,1.39-.585.309-1.284.285-2.097-.073-1.074-.488-2.049-.837-2.927-1.049-.879-.211-1.708-.317-2.489-.317-1.463,0-2.52.236-3.171.707-.65.472-.975,1.066-.975,1.781,0,1.138.764,1.854,2.293,2.147l5.122.927c2.114.357,3.724,1.065,4.83,2.122,1.106,1.057,1.658,2.496,1.658,4.317,0,2.505-.975,4.456-2.927,5.854-1.951,1.399-4.52,2.098-7.708,2.098ZM87.4586,36.101c-1.203,0-2.122-.35-2.756-1.049-.635-.699-.952-1.683-.952-2.952V15.416c0-2.699,1.236-4.049,3.708-4.049,1.171,0,2.073.349,2.708,1.049.634.699.951,1.699.951,3v16.684c0,1.269-.309,2.253-.927,2.952-.618.699-1.529,1.049-2.732,1.049ZM58.4316,36.15c-2.472,0-3.708-1.253-3.708-3.757V4.634c0-2.504,1.236-3.756,3.708-3.756,2.439,0,3.659,1.252,3.659,3.756v10.392c.845-1.236,1.935-2.171,3.268-2.805,1.334-.635,2.814-.952,4.44-.952,5.626,0,8.44,3.35,8.44,10.05v11.074c0,2.504-1.236,3.757-3.708,3.757-1.171,0-2.073-.326-2.708-.976-.634-.651-.951-1.577-.951-2.781v-10.733c0-1.658-.309-2.853-.927-3.585-.618-.732-1.528-1.098-2.732-1.098-1.561,0-2.805.488-3.732,1.464-.927.975-1.39,2.276-1.39,3.902v10.05c0,2.504-1.22,3.757-3.659,3.757ZM14.2426,36.15c-1.073,0-1.927-.252-2.561-.757-.635-.504-1.147-1.276-1.537-2.317L.2896,5.366c-.455-1.236-.374-2.293.244-3.171.618-.878,1.675-1.317,3.171-1.317,1.041,0,1.846.244,2.415.732.569.488,1.033,1.252,1.391,2.293l7.025,20.928L21.9506,3.951c.358-1.04.829-1.813,1.415-2.317.585-.504,1.349-.756,2.293-.756.91,0,1.642.252,2.195.756.553.504,1.024,1.293,1.415,2.366l7.171,21.222,7.318-21.319c.325-1.009.78-1.765,1.366-2.269.585-.504,1.382-.756,2.39-.756,1.269,0,2.196.439,2.781,1.317.585.878.651,1.935.195,3.171l-9.952,27.759c-.358,1.008-.854,1.764-1.488,2.268-.634.505-1.472.757-2.512.757-1.041,0-1.87-.252-2.488-.757-.618-.504-1.122-1.276-1.513-2.317l-7.122-20.197-7.221,20.246c-.39,1.008-.886,1.764-1.487,2.268-.602.505-1.423.757-2.464.757Z" style="fill:#0d6efd; fill-rule:evenodd; stroke-width:0px;"/><path d="M87.4586,7.366c-1.366,0-2.415-.317-3.147-.951-.731-.634-1.097-1.537-1.097-2.707,0-1.204.366-2.123,1.097-2.757.732-.634,1.781-.951,3.147-.951,2.797,0,4.196,1.236,4.196,3.708,0,2.439-1.399,3.658-4.196,3.658Z" style="fill:#0d6efd; stroke-width:0px;"/></g></g></svg>