<?xml version="1.0" encoding="UTF-8" standalone="no"?>
<!DOCTYPE svg PUBLIC "-//W3C//DTD SVG 1.1//EN" "http://www.w3.org/Graphics/SVG/1.1/DTD/svg11.dtd">
<svg width="100%" height="100%" viewBox="0 0 68 79" version="1.1" xmlns="http://www.w3.org/2000/svg" xmlns:xlink="http://www.w3.org/1999/xlink" xml:space="preserve" xmlns:serif="http://www.serif.com/" style="fill-rule:evenodd;clip-rule:evenodd;stroke-linejoin:round;stroke-miterlimit:2;">
    <g id="Components">
        <g id="c4d8b007-9b4e-452e-81af-3f34d22da58f_7">
            <path d="M55.893,15.841C55.015,16.718 53.592,16.718 52.715,15.841L52.714,15.84C51.837,14.962 51.837,13.539 52.714,12.662L55.892,9.484C56.769,8.607 58.192,8.607 59.07,9.484L59.07,9.485C59.948,10.363 59.948,11.786 59.07,12.663L55.893,15.841ZM61.147,26.373C59.906,26.373 58.9,25.367 58.9,24.126L58.9,24.125C58.9,22.884 59.906,21.878 61.147,21.878L65.641,21.878C66.882,21.878 67.888,22.884 67.888,24.125L67.888,24.126C67.888,25.367 66.882,26.373 65.641,26.373L61.147,26.373ZM46.217,6.741C46.217,7.982 45.211,8.988 43.97,8.988L43.969,8.988C42.728,8.988 41.721,7.982 41.721,6.741L41.721,2.247C41.721,1.006 42.728,0 43.969,0L43.97,0C45.211,0 46.217,1.006 46.217,2.247L46.217,6.741ZM3.716,77.433C3.094,78.056 2.157,78.242 1.344,77.905C0.531,77.568 0,76.775 0,75.894L0,42.791L0.024,42.768C0.018,42.635 0.013,42.502 0.01,42.369C0.004,42.131 0,41.892 0,41.653L0,28.517C0,25.02 1.39,21.666 3.863,19.193C6.336,16.72 9.69,15.33 13.188,15.33L39.596,15.33C46.879,15.33 52.784,21.234 52.784,28.517L52.784,42.369L52.724,42.369C52.72,42.502 52.715,42.635 52.71,42.768L52.784,42.841L52.784,54.926C52.784,62.209 46.879,68.113 39.596,68.113L13.036,68.113L3.716,77.433Z" style="fill:rgb(49,112,246);"/>
            <path d="M18.706,54.724C17.913,54.724 17.284,54.532 16.816,54.159C16.355,53.792 15.978,53.233 15.694,52.476C15.693,52.473 15.692,52.471 15.691,52.469L8.9,31.989C8.561,31.067 8.632,30.279 9.094,29.623C9.553,28.971 10.332,28.63 11.443,28.63C12.217,28.63 12.814,28.82 13.237,29.183C13.652,29.538 13.994,30.092 14.255,30.85C14.255,30.852 14.256,30.854 14.257,30.856L18.921,46.086L23.83,32.266C24.09,31.509 24.437,30.95 24.863,30.583C25.3,30.207 25.869,30.014 26.574,30.014C27.258,30.014 27.806,30.208 28.222,30.587C28.622,30.952 28.967,31.52 29.25,32.297C29.25,32.299 29.251,32.3 29.251,32.301L33.994,46.336L38.662,30.902C38.662,30.901 38.662,30.899 38.663,30.898C38.9,30.162 39.237,29.613 39.664,29.245C40.1,28.869 40.691,28.675 41.442,28.675C42.394,28.675 43.086,29.013 43.525,29.672C43.961,30.326 44.02,31.113 43.682,32.034L37.019,52.501C37.019,52.503 37.018,52.504 37.018,52.506C36.757,53.242 36.391,53.791 35.928,54.159C35.459,54.532 34.842,54.724 34.072,54.724C33.301,54.724 32.688,54.531 32.231,54.158C31.782,53.791 31.411,53.232 31.128,52.476C31.127,52.475 31.127,52.473 31.126,52.472L26.405,39.083L21.618,52.506C21.617,52.508 21.616,52.51 21.616,52.511C21.332,53.243 20.969,53.79 20.532,54.156C20.086,54.53 19.478,54.724 18.706,54.724Z" style="fill:white;"/>
        </g>
    </g>
</svg>
