<?xml version="1.0" encoding="UTF-8"?><svg id="Layer_2" xmlns="http://www.w3.org/2000/svg" viewBox="0 0 67.888 78.0709"><g id="Components"><g id="c4d8b007-9b4e-452e-81af-3f34d22da58f_10"><path d="M55.893,15.841c-.878.877-2.301.877-3.178,0l-.001-.001c-.877-.878-.877-2.301,0-3.178l3.178-3.178c.877-.877,2.3-.877,3.178,0v.001c.878.878.878,2.301,0,3.178l-3.177,3.178ZM61.147,26.373c-1.241,0-2.247-1.006-2.247-2.247v-.001c0-1.241,1.006-2.247,2.247-2.247h4.494c1.241,0,2.247,1.006,2.247,2.247v.001c0,1.241-1.006,2.247-2.247,2.247h-4.494ZM46.217,6.741c0,1.241-1.006,2.247-2.247,2.247h-.001c-1.241,0-2.248-1.006-2.248-2.247V2.247c0-1.241,1.007-2.247,2.248-2.247h.001c1.241,0,2.247,1.006,2.247,2.247v4.494ZM3.716,77.433c-.622.623-1.559.809-2.372.472-.813-.337-1.344-1.13-1.344-2.011v-33.103l.024-.023c-.006-.133-.011-.266-.014-.399-.006-.238-.01-.477-.01-.716v-13.136c0-3.497,1.39-6.851,3.863-9.324,2.473-2.473,5.827-3.863,9.325-3.863h26.408c7.283,0,13.188,5.904,13.188,13.187v13.852h-.06c-.004.133-.009.266-.014.399l.074.073v12.085c0,7.283-5.905,13.187-13.188,13.187H13.036l-9.32,9.32Z" style="fill:#0d6efd; fill-rule:evenodd; stroke-width:0px;"/><path d="M18.706,54.724c-.793,0-1.422-.192-1.89-.565-.461-.367-.838-.926-1.122-1.683-.001-.003-.002-.005-.003-.007l-6.791-20.48c-.339-.922-.268-1.71.194-2.366.459-.652,1.238-.993,2.349-.993.774,0,1.371.19,1.794.553.415.355.757.909,1.018,1.667,0,.002.001.004.002.006l4.664,15.23,4.909-13.82c.26-.757.607-1.316,1.033-1.683.437-.376,1.006-.569,1.711-.569.684,0,1.232.194,1.648.573.4.365.745.933,1.028,1.71,0,.002.001.003.001.004l4.743,14.035,4.668-15.434c0-.001,0-.003.001-.004.237-.736.574-1.285,1.001-1.653.436-.376,1.027-.57,1.778-.57.952,0,1.644.338,2.083.997.436.654.495,1.441.157,2.362l-6.663,20.467c0,.002-.001.003-.001.005-.261.736-.627,1.285-1.09,1.653-.469.373-1.086.565-1.856.565-.771,0-1.384-.193-1.841-.566-.449-.367-.82-.926-1.103-1.682-.001-.001-.001-.003-.002-.004l-4.721-13.389-4.787,13.423c-.001.002-.002.004-.002.005-.284.732-.647,1.279-1.084,1.645-.446.374-1.054.568-1.826.568Z" style="fill:#fff; fill-rule:evenodd; stroke-width:0px;"/></g></g></svg>